PathFileType	4	(X/Y/Z)	C:\Users\dbl\Desktop\LZH\BX\Trimmed_Trimmed_bx_y_5_501.trc
DataRate	CameraRate	NumFrames	NumMarkers	Units	OrigDataRate	OrigDataStartFrame	OrigNumFrames
50.00	50.00	       4	43	mm	50.00	274	       438
Frame#	Time	Top.Head			R.Acromium			L.Acromium			Sternum			R.ASIS			L.ASIS			V.Sacral			R.Thigh.Upper			R.Thigh.Front			R.Thigh.Rear			R.Knee.Lat			R.Knee.Med			R.Shank.Upper			R.Shank.Front			R.Shank.Rear			R.Ankle.Lat			R.Midfoot.Lat			R.Toe.Lat			R.Toe.Tip			R.Toe.Med			R.Ankle.Med			R.Midfoot.Sup			R.Heel			L.Thigh.Upper			L.Thigh.Front			L.Thigh.Rear			L.Knee.Lat			L.Knee.Med			L.Shank.Upper			L.Shank.Front			L.Shank.Rear			L.Ankle.Lat			L.Midfoot.Lat			L.Toe.Lat			L.Toe.Tip			L.Toe.Med			L.Ankle.Med			L.Midfoot.Sup			L.Heel			origin1 front left			origin2 front right			origin 3 back right			origin 4 back leftt			
		X1	Y1	Z1	X2	Y2	Z2	X3	Y3	Z3	X4	Y4	Z4	X5	Y5	Z5	X6	Y6	Z6	X7	Y7	Z7	X8	Y8	Z8	X9	Y9	Z9	X10	Y10	Z10	X11	Y11	Z11	X12	Y12	Z12	X13	Y13	Z13	X14	Y14	Z14	X15	Y15	Z15	X16	Y16	Z16	X17	Y17	Z17	X18	Y18	Z18	X19	Y19	Z19	X20	Y20	Z20	X21	Y21	Z21	X22	Y22	Z22	X23	Y23	Z23	X24	Y24	Z24	X25	Y25	Z25	X26	Y26	Z26	X27	Y27	Z27	X28	Y28	Z28	X29	Y29	Z29	X30	Y30	Z30	X31	Y31	Z31	X32	Y32	Z32	X33	Y33	Z33	X34	Y34	Z34	X35	Y35	Z35	X36	Y36	Z36	X37	Y37	Z37	X38	Y38	Z38	X39	Y39	Z39	X40	Y40	Z40	X41	Y41	Z41	X42	Y42	Z42	X43	Y43	Z43	

274	5.460	-694.17554	264.55200	1833.45398	-663.70276	78.11891	1526.89221	-632.33307	459.58331	1539.10474	-540.69293	275.73358	1396.08972	-549.50262	150.71581	1060.69495	-547.68298	408.35666	1089.34412	-753.33386	267.38437	1017.35687	-577.73364	103.08628	896.81030	-532.87115	163.14682	847.30609	-631.24884	96.93054	753.66791	-653.45862	129.97974	605.88086	-637.19812	236.33740	561.41479	-689.25018	128.81030	542.52838	-605.40863	177.81039	546.02820	-728.03204	132.30667	475.58633	-686.64685	147.47485	214.50803	-614.43231	81.04656	166.38498	-569.65442	55.64032	164.55508	-490.60995	97.61159	163.60193	-529.72583	148.35870	165.62549	-632.43011	220.11258	219.10040	-590.64081	190.16174	171.12402	-715.08008	216.58832	169.39215	-572.32367	444.31317	881.90887	-527.29706	381.60449	838.86353	-619.89355	445.20190	750.94031	-652.98987	419.91974	627.76813	-622.15417	314.34058	581.07764	-661.89594	415.08902	563.72681	-610.50134	373.29633	542.73816	-715.00812	421.05402	513.43286	-679.12799	416.19000	212.35402	-583.12726	469.13727	164.77345	-543.45618	477.71396	159.73315	-477.96844	429.26678	166.15170	-523.26093	386.97934	177.01503	-643.61169	328.20273	207.57057	-595.07495	348.77631	168.06133	-733.00378	345.41086	164.56055	-443.56976	449.04861	147.03105	-450.54633	75.02007	144.86566	-806.09039	82.39684	142.67421	-799.65674	457.67108	145.15137	
275	5.480	-694.14734	264.44449	1833.40552	-662.18469	77.97516	1526.92981	-632.23773	459.46509	1539.10022	-540.54846	275.65442	1396.13037	-549.45172	150.66914	1060.71814	-547.36456	408.22931	1088.24658	-753.23303	267.30011	1017.36212	-577.67200	103.08833	896.77655	-532.86670	163.15170	847.24561	-631.14905	96.91651	753.61066	-653.42688	129.98062	605.83026	-637.18958	236.36368	561.42688	-689.22858	128.80879	542.50287	-605.41937	177.83333	545.99030	-728.04468	132.30927	475.56348	-686.63641	147.51965	214.50093	-614.43457	81.06451	166.41447	-569.65436	55.63947	164.55704	-490.57486	97.59751	163.65359	-529.72693	148.36279	165.63963	-632.41864	220.09637	219.09012	-590.64166	190.20755	171.06966	-715.05841	216.60779	169.37900	-572.32935	444.31241	881.89703	-527.32642	381.63440	838.79901	-619.89880	445.19379	750.93378	-652.99915	419.89996	627.76367	-622.14587	314.35007	581.04810	-661.93182	415.06888	563.71667	-610.48108	373.32559	542.73962	-714.92133	421.10117	513.23907	-679.14844	416.19495	212.35297	-583.12921	469.13620	164.78256	-543.46344	477.73251	159.73065	-477.96234	429.26920	166.17329	-523.27850	387.01105	177.01428	-643.60339	328.18329	207.60564	-595.00952	348.66632	168.25571	-733.00629	345.38284	164.53712	-443.56317	449.04019	147.02989	-450.55670	75.04872	144.84541	-806.10187	82.38839	142.68854	-799.66565	457.68234	145.18794	
276	5.500	-694.15680	264.29068	1833.34204	-660.60083	77.75920	1527.01074	-632.12073	459.32727	1539.10095	-540.36450	275.53204	1396.18579	-549.41913	150.62218	1060.74402	-547.12317	408.09970	1087.14783	-753.16418	267.23004	1017.37299	-577.60889	103.09947	896.73700	-532.84338	163.14758	847.19318	-631.03247	96.91701	753.52942	-653.38153	129.97719	605.76416	-637.18762	236.40353	561.46716	-689.20319	128.80478	542.48010	-605.43317	177.85532	545.95734	-728.05969	132.30605	475.54248	-686.61646	147.56851	214.50050	-614.44434	81.08979	166.44685	-569.64398	55.63754	164.56367	-490.54343	97.58230	163.70065	-529.72321	148.36571	165.65327	-632.40759	220.08003	219.06413	-590.63513	190.27567	171.01079	-715.05243	216.62529	169.36487	-572.33612	444.30539	881.88074	-527.35651	381.64816	838.72723	-619.90137	445.19324	750.92108	-653.00018	419.88211	627.75970	-622.12372	314.35623	581.01752	-661.96613	415.05432	563.71680	-610.45612	373.34991	542.74274	-714.83344	421.14215	513.05389	-679.17096	416.19797	212.37778	-583.13068	469.11957	164.80093	-543.46796	477.74948	159.73917	-477.95670	429.27100	166.20563	-523.29547	387.04190	177.01230	-643.60388	328.17847	207.63222	-594.95172	348.56003	168.44110	-733.00891	345.37427	164.52878	-443.55582	449.03482	147.02998	-450.56488	75.08517	144.81534	-806.10870	82.38931	142.69926	-799.64398	457.72995	145.18706	
277	5.520	-694.14667	264.11304	1833.28064	-658.94482	77.46046	1527.14136	-631.97400	459.17313	1539.10620	-540.15192	275.37848	1396.24341	-549.40631	150.57240	1060.76428	-546.96149	407.96808	1086.05139	-753.13959	267.16449	1017.38849	-577.55194	103.11008	896.69287	-532.79797	163.13637	847.15692	-630.91339	96.92888	753.43103	-653.32861	129.96497	605.68738	-637.19312	236.41644	561.48657	-689.17700	128.79819	542.46155	-605.44464	177.87569	545.92755	-728.07062	132.29967	475.52536	-686.58972	147.61867	214.50244	-614.45801	81.12074	166.47745	-569.62451	55.63529	164.57396	-490.52664	97.56728	163.72539	-529.71246	148.36482	165.66122	-632.40057	220.06866	219.01617	-590.62366	190.35905	170.95512	-715.06482	216.63847	169.35300	-572.34833	444.28528	881.85925	-527.38116	381.64133	838.66315	-619.90430	445.19827	750.90387	-652.99054	419.86948	627.75885	-622.08582	314.35764	580.98578	-661.99054	415.04443	563.72266	-610.43048	373.36191	542.74658	-714.75861	421.16925	512.91022	-679.19257	416.20621	212.43019	-583.13000	469.09018	164.82286	-543.46948	477.76157	159.75661	-477.95038	429.27228	166.24350	-523.30988	387.06741	177.01193	-643.61536	328.19464	207.63969	-594.92456	348.49731	168.56789	-733.00983	345.38947	164.52695	-443.54770	449.03555	147.03206	-450.57123	75.12553	144.77696	-806.11102	82.40192	142.70215	-799.59790	457.80289	145.14992	
